solid strong_qube_4_draft3
facet normal 0.0 0.0 -1.0
  outer loop
    vertex 34.99999999999998 44.99999999999994 0.0
    vertex 34.99999999999998 39.00000000000001 0.0
    vertex 29.99999999999999 39.00000000000001 0.0
  endloop
endfacet
facet normal 0.0 0.0 -1.0
  outer loop
    vertex 34.99999999999998 39.00000000000001 0.0
    vertex 34.99999999999998 44.99999999999994 0.0
    vertex 34.99999999999998 40.99999999999995 0.0
  endloop
endfacet
facet normal 0.0 0.0 -1.0
  outer loop
    vertex 34.99999999999998 39.00000000000001 0.0
    vertex 34.99999999999998 40.99999999999995 0.0
    vertex 39.99999999999993 40.99999999999995 0.0
  endloop
endfacet
facet normal 0.0 0.0 -1.0
  outer loop
    vertex 39.99999999999997 39.00000000000001 0.0
    vertex 44.999999999999915 40.99999999999995 0.0
    vertex 44.999999999999964 39.00000000000001 0.0
  endloop
endfacet
facet normal 0.0 0.0 -1.0
  outer loop
    vertex 44.999999999999915 40.99999999999995 0.0
    vertex 39.99999999999997 39.00000000000001 0.0
    vertex 44.999999999999915 44.99999999999994 0.0
  endloop
endfacet
facet normal 0.0 0.0 -1.0
  outer loop
    vertex 44.999999999999964 39.00000000000001 0.0
    vertex 44.999999999999915 40.99999999999995 0.0
    vertex 49.99999999999991 40.99999999999995 0.0
  endloop
endfacet
facet normal 0.0 0.0 -1.0
  outer loop
    vertex 0.0 79.99999999999994 0.0
    vertex 25.0 44.99999999999994 0.0
    vertex 0.0 0.0 0.0
  endloop
endfacet
facet normal 0.0 0.0 -1.0
  outer loop
    vertex 25.0 44.99999999999994 0.0
    vertex 0.0 79.99999999999994 0.0
    vertex 79.9999999999999 79.99999999999994 0.0
  endloop
endfacet
facet normal 0.0 0.0 -1.0
  outer loop
    vertex 25.0 44.99999999999994 0.0
    vertex 79.9999999999999 79.99999999999994 0.0
    vertex 29.99999999999999 44.99999999999994 0.0
  endloop
endfacet
facet normal 0.0 0.0 -1.0
  outer loop
    vertex 29.99999999999999 44.99999999999994 0.0
    vertex 79.9999999999999 79.99999999999994 0.0
    vertex 34.99999999999998 44.99999999999994 0.0
  endloop
endfacet
facet normal 0.0 0.0 -1.0
  outer loop
    vertex 29.99999999999999 44.99999999999994 0.0
    vertex 34.99999999999998 44.99999999999994 0.0
    vertex 29.99999999999999 40.99999999999995 0.0
  endloop
endfacet
facet normal 0.0 0.0 -1.0
  outer loop
    vertex 29.99999999999999 40.99999999999995 0.0
    vertex 34.99999999999998 44.99999999999994 0.0
    vertex 29.99999999999999 39.00000000000001 0.0
  endloop
endfacet
facet normal 0.0 0.0 -1.0
  outer loop
    vertex 34.99999999999998 44.99999999999994 0.0
    vertex 79.9999999999999 79.99999999999994 0.0
    vertex 39.99999999999993 44.99999999999994 0.0
  endloop
endfacet
facet normal 0.0 0.0 -1.0
  outer loop
    vertex 39.99999999999993 44.99999999999994 0.0
    vertex 79.9999999999999 79.99999999999994 0.0
    vertex 39.99999999999993 40.99999999999995 0.0
  endloop
endfacet
facet normal 0.0 0.0 -1.0
  outer loop
    vertex 39.99999999999993 40.99999999999995 0.0
    vertex 79.9999999999999 79.99999999999994 0.0
    vertex 44.999999999999915 44.99999999999994 0.0
  endloop
endfacet
facet normal 0.0 0.0 -1.0
  outer loop
    vertex 39.99999999999993 40.99999999999995 0.0
    vertex 44.999999999999915 44.99999999999994 0.0
    vertex 39.99999999999997 39.00000000000001 0.0
  endloop
endfacet
facet normal 0.0 0.0 -1.0
  outer loop
    vertex 39.99999999999993 40.99999999999995 0.0
    vertex 39.99999999999997 39.00000000000001 0.0
    vertex 39.99999999999993 35.0 0.0
  endloop
endfacet
facet normal 0.0 0.0 -1.0
  outer loop
    vertex 44.999999999999915 44.99999999999994 0.0
    vertex 79.9999999999999 79.99999999999994 0.0
    vertex 49.99999999999991 44.99999999999994 0.0
  endloop
endfacet
facet normal 0.0 0.0 -1.0
  outer loop
    vertex 49.99999999999991 44.99999999999994 0.0
    vertex 79.9999999999999 79.99999999999994 0.0
    vertex 49.99999999999991 40.99999999999995 0.0
  endloop
endfacet
facet normal 0.0 0.0 -1.0
  outer loop
    vertex 49.99999999999991 40.99999999999995 0.0
    vertex 79.9999999999999 79.99999999999994 0.0
    vertex 49.99999999999993 39.00000000000001 0.0
  endloop
endfacet
facet normal 0.0 0.0 -1.0
  outer loop
    vertex 49.99999999999991 40.99999999999995 0.0
    vertex 49.99999999999993 39.00000000000001 0.0
    vertex 49.99999999999991 35.0 0.0
  endloop
endfacet
facet normal 0.0 0.0 -1.0
  outer loop
    vertex 49.99999999999993 39.00000000000001 0.0
    vertex 79.9999999999999 79.99999999999994 0.0
    vertex 54.9999999999999 39.00000000000001 0.0
  endloop
endfacet
facet normal 0.0 0.0 -1.0
  outer loop
    vertex 54.9999999999999 39.00000000000001 0.0
    vertex 79.9999999999999 79.99999999999994 0.0
    vertex 54.9999999999999 35.0 0.0
  endloop
endfacet
facet normal 0.0 0.0 -1.0
  outer loop
    vertex 0.0 0.0 0.0
    vertex 29.999999999999947 35.0 0.0
    vertex 79.9999999999999 0.0 0.0
  endloop
endfacet
facet normal 0.0 0.0 -1.0
  outer loop
    vertex 29.999999999999947 35.0 0.0
    vertex 0.0 0.0 0.0
    vertex 25.0 40.99999999999995 0.0
  endloop
endfacet
facet normal 0.0 0.0 -1.0
  outer loop
    vertex 25.0 40.99999999999995 0.0
    vertex 0.0 0.0 0.0
    vertex 25.0 44.99999999999994 0.0
  endloop
endfacet
facet normal 0.0 0.0 -1.0
  outer loop
    vertex 79.9999999999999 0.0 0.0
    vertex 29.999999999999947 35.0 0.0
    vertex 34.999999999999936 35.0 0.0
  endloop
endfacet
facet normal 0.0 0.0 -1.0
  outer loop
    vertex 79.9999999999999 0.0 0.0
    vertex 34.999999999999936 35.0 0.0
    vertex 34.99999999999998 39.00000000000001 0.0
  endloop
endfacet
facet normal 0.0 0.0 -1.0
  outer loop
    vertex 79.9999999999999 0.0 0.0
    vertex 34.99999999999998 39.00000000000001 0.0
    vertex 39.99999999999993 35.0 0.0
  endloop
endfacet
facet normal 0.0 0.0 -1.0
  outer loop
    vertex 39.99999999999993 35.0 0.0
    vertex 34.99999999999998 39.00000000000001 0.0
    vertex 39.99999999999993 40.99999999999995 0.0
  endloop
endfacet
facet normal 0.0 0.0 -1.0
  outer loop
    vertex 79.9999999999999 0.0 0.0
    vertex 39.99999999999993 35.0 0.0
    vertex 44.999999999999915 35.0 0.0
  endloop
endfacet
facet normal 0.0 0.0 -1.0
  outer loop
    vertex 79.9999999999999 0.0 0.0
    vertex 44.999999999999915 35.0 0.0
    vertex 44.999999999999964 39.00000000000001 0.0
  endloop
endfacet
facet normal 0.0 0.0 -1.0
  outer loop
    vertex 79.9999999999999 0.0 0.0
    vertex 44.999999999999964 39.00000000000001 0.0
    vertex 49.99999999999991 35.0 0.0
  endloop
endfacet
facet normal 0.0 0.0 -1.0
  outer loop
    vertex 49.99999999999991 35.0 0.0
    vertex 44.999999999999964 39.00000000000001 0.0
    vertex 49.99999999999991 40.99999999999995 0.0
  endloop
endfacet
facet normal 0.0 0.0 -1.0
  outer loop
    vertex 79.9999999999999 0.0 0.0
    vertex 49.99999999999991 35.0 0.0
    vertex 54.9999999999999 35.0 0.0
  endloop
endfacet
facet normal 0.0 0.0 -1.0
  outer loop
    vertex 79.9999999999999 0.0 0.0
    vertex 54.9999999999999 35.0 0.0
    vertex 79.9999999999999 79.99999999999994 0.0
  endloop
endfacet
facet normal 0.0 0.0 -1.0
  outer loop
    vertex 29.99999999999999 40.99999999999995 0.0
    vertex 29.999999999999947 35.0 0.0
    vertex 25.0 40.99999999999995 0.0
  endloop
endfacet
facet normal 0.0 0.0 -1.0
  outer loop
    vertex 29.999999999999947 35.0 0.0
    vertex 29.99999999999999 40.99999999999995 0.0
    vertex 29.99999999999999 39.00000000000001 0.0
  endloop
endfacet
facet normal -1.0 0.0 0.0
  outer loop
    vertex 0.0 79.99999999999994 49.000000000000036
    vertex 0.0 0.0 0.0
    vertex 0.0 0.0 49.000000000000036
  endloop
endfacet
facet normal -1.0 0.0 0.0
  outer loop
    vertex 0.0 0.0 0.0
    vertex 0.0 79.99999999999994 49.000000000000036
    vertex 0.0 79.99999999999994 0.0
  endloop
endfacet
facet normal -0.0 1.0 -0.0
  outer loop
    vertex 0.0 79.99999999999994 49.000000000000036
    vertex 79.9999999999999 79.99999999999994 0.0
    vertex 0.0 79.99999999999994 0.0
  endloop
endfacet
facet normal -0.0 1.0 -0.0
  outer loop
    vertex 79.9999999999999 79.99999999999994 0.0
    vertex 0.0 79.99999999999994 49.000000000000036
    vertex 79.9999999999999 79.99999999999994 49.000000000000036
  endloop
endfacet
facet normal 1.0 -0.0 -0.0
  outer loop
    vertex 79.9999999999999 79.99999999999994 0.0
    vertex 79.9999999999999 0.0 49.000000000000036
    vertex 79.9999999999999 0.0 0.0
  endloop
endfacet
facet normal 1.0 -0.0 -0.0
  outer loop
    vertex 79.9999999999999 0.0 49.000000000000036
    vertex 79.9999999999999 79.99999999999994 0.0
    vertex 79.9999999999999 79.99999999999994 49.000000000000036
  endloop
endfacet
facet normal 0.0 -1.0 0.0
  outer loop
    vertex 79.9999999999999 0.0 49.000000000000036
    vertex 0.0 0.0 0.0
    vertex 79.9999999999999 0.0 0.0
  endloop
endfacet
facet normal 0.0 -1.0 0.0
  outer loop
    vertex 0.0 0.0 0.0
    vertex 79.9999999999999 0.0 49.000000000000036
    vertex 0.0 0.0 49.000000000000036
  endloop
endfacet
facet normal -1.0 0.0 0.0
  outer loop
    vertex 29.99999999999999 44.99999999999994 2.0000000000000027
    vertex 29.99999999999999 40.99999999999995 0.0
    vertex 29.99999999999999 40.99999999999995 2.0000000000000027
  endloop
endfacet
facet normal -1.0 0.0 0.0
  outer loop
    vertex 29.99999999999999 40.99999999999995 0.0
    vertex 29.99999999999999 44.99999999999994 2.0000000000000027
    vertex 29.99999999999999 44.99999999999994 0.0
  endloop
endfacet
facet normal 0.0 -1.0 0.0
  outer loop
    vertex 29.99999999999999 44.99999999999994 2.0000000000000027
    vertex 25.0 44.99999999999994 0.0
    vertex 29.99999999999999 44.99999999999994 0.0
  endloop
endfacet
facet normal 0.0 -1.0 0.0
  outer loop
    vertex 25.0 44.99999999999994 0.0
    vertex 29.99999999999999 44.99999999999994 2.0000000000000027
    vertex 25.0 44.99999999999994 2.0000000000000027
  endloop
endfacet
facet normal 1.0 -0.0 -0.0
  outer loop
    vertex 25.0 44.99999999999994 0.0
    vertex 25.0 40.99999999999995 2.0000000000000027
    vertex 25.0 40.99999999999995 0.0
  endloop
endfacet
facet normal 1.0 -0.0 -0.0
  outer loop
    vertex 25.0 40.99999999999995 2.0000000000000027
    vertex 25.0 44.99999999999994 0.0
    vertex 25.0 44.99999999999994 2.0000000000000027
  endloop
endfacet
facet normal -0.0 1.0 -0.0
  outer loop
    vertex 25.0 40.99999999999995 2.0000000000000027
    vertex 29.99999999999999 40.99999999999995 0.0
    vertex 25.0 40.99999999999995 0.0
  endloop
endfacet
facet normal -0.0 1.0 -0.0
  outer loop
    vertex 29.99999999999999 40.99999999999995 0.0
    vertex 25.0 40.99999999999995 2.0000000000000027
    vertex 29.99999999999999 40.99999999999995 2.0000000000000027
  endloop
endfacet
facet normal 1.0 -5.6399329650957886e-15 -0.0
  outer loop
    vertex 49.99999999999993 39.00000000000001 0.0
    vertex 49.99999999999991 35.0 2.0000000000000027
    vertex 49.99999999999991 35.0 0.0
  endloop
endfacet
facet normal 1.0 -5.6399329650957886e-15 -0.0
  outer loop
    vertex 49.99999999999991 35.0 2.0000000000000027
    vertex 49.99999999999993 39.00000000000001 0.0
    vertex 49.99999999999993 39.00000000000001 2.0000000000000027
  endloop
endfacet
facet normal -0.0 1.0 -0.0
  outer loop
    vertex 49.99999999999991 35.0 2.0000000000000027
    vertex 54.9999999999999 35.0 0.0
    vertex 49.99999999999991 35.0 0.0
  endloop
endfacet
facet normal -0.0 1.0 -0.0
  outer loop
    vertex 54.9999999999999 35.0 0.0
    vertex 49.99999999999991 35.0 2.0000000000000027
    vertex 54.9999999999999 35.0 2.0000000000000027
  endloop
endfacet
facet normal -1.0 0.0 0.0
  outer loop
    vertex 54.9999999999999 39.00000000000001 2.0000000000000027
    vertex 54.9999999999999 35.0 0.0
    vertex 54.9999999999999 35.0 2.0000000000000027
  endloop
endfacet
facet normal -1.0 0.0 0.0
  outer loop
    vertex 54.9999999999999 35.0 0.0
    vertex 54.9999999999999 39.00000000000001 2.0000000000000027
    vertex 54.9999999999999 39.00000000000001 0.0
  endloop
endfacet
facet normal 0.0 -1.0 0.0
  outer loop
    vertex 54.9999999999999 39.00000000000001 2.0000000000000027
    vertex 49.99999999999993 39.00000000000001 0.0
    vertex 54.9999999999999 39.00000000000001 0.0
  endloop
endfacet
facet normal 0.0 -1.0 0.0
  outer loop
    vertex 49.99999999999993 39.00000000000001 0.0
    vertex 54.9999999999999 39.00000000000001 2.0000000000000027
    vertex 49.99999999999993 39.00000000000001 2.0000000000000027
  endloop
endfacet
facet normal -0.0 1.0 -0.0
  outer loop
    vertex 44.999999999999915 40.99999999999995 2.0000000000000027
    vertex 49.99999999999991 40.99999999999995 0.0
    vertex 44.999999999999915 40.99999999999995 0.0
  endloop
endfacet
facet normal -0.0 1.0 -0.0
  outer loop
    vertex 49.99999999999991 40.99999999999995 0.0
    vertex 44.999999999999915 40.99999999999995 2.0000000000000027
    vertex 49.99999999999991 40.99999999999995 2.0000000000000027
  endloop
endfacet
facet normal -1.0 0.0 0.0
  outer loop
    vertex 49.99999999999991 44.99999999999994 2.0000000000000027
    vertex 49.99999999999991 40.99999999999995 0.0
    vertex 49.99999999999991 40.99999999999995 2.0000000000000027
  endloop
endfacet
facet normal -1.0 0.0 0.0
  outer loop
    vertex 49.99999999999991 40.99999999999995 0.0
    vertex 49.99999999999991 44.99999999999994 2.0000000000000027
    vertex 49.99999999999991 44.99999999999994 0.0
  endloop
endfacet
facet normal 0.0 -1.0 0.0
  outer loop
    vertex 49.99999999999991 44.99999999999994 2.0000000000000027
    vertex 44.999999999999915 44.99999999999994 0.0
    vertex 49.99999999999991 44.99999999999994 0.0
  endloop
endfacet
facet normal 0.0 -1.0 0.0
  outer loop
    vertex 44.999999999999915 44.99999999999994 0.0
    vertex 49.99999999999991 44.99999999999994 2.0000000000000027
    vertex 44.999999999999915 44.99999999999994 2.0000000000000027
  endloop
endfacet
facet normal 1.0 -0.0 -0.0
  outer loop
    vertex 44.999999999999915 44.99999999999994 0.0
    vertex 44.999999999999915 40.99999999999995 2.0000000000000027
    vertex 44.999999999999915 40.99999999999995 0.0
  endloop
endfacet
facet normal 1.0 -0.0 -0.0
  outer loop
    vertex 44.999999999999915 40.99999999999995 2.0000000000000027
    vertex 44.999999999999915 44.99999999999994 0.0
    vertex 44.999999999999915 44.99999999999994 2.0000000000000027
  endloop
endfacet
facet normal -0.0 1.0 -0.0
  outer loop
    vertex 34.99999999999998 40.99999999999995 2.0000000000000027
    vertex 39.99999999999993 40.99999999999995 0.0
    vertex 34.99999999999998 40.99999999999995 0.0
  endloop
endfacet
facet normal -0.0 1.0 -0.0
  outer loop
    vertex 39.99999999999993 40.99999999999995 0.0
    vertex 34.99999999999998 40.99999999999995 2.0000000000000027
    vertex 39.99999999999993 40.99999999999995 2.0000000000000027
  endloop
endfacet
facet normal -1.0 0.0 0.0
  outer loop
    vertex 39.99999999999993 44.99999999999994 2.0000000000000027
    vertex 39.99999999999993 40.99999999999995 0.0
    vertex 39.99999999999993 40.99999999999995 2.0000000000000027
  endloop
endfacet
facet normal -1.0 0.0 0.0
  outer loop
    vertex 39.99999999999993 40.99999999999995 0.0
    vertex 39.99999999999993 44.99999999999994 2.0000000000000027
    vertex 39.99999999999993 44.99999999999994 0.0
  endloop
endfacet
facet normal 0.0 -1.0 0.0
  outer loop
    vertex 39.99999999999993 44.99999999999994 2.0000000000000027
    vertex 34.99999999999998 44.99999999999994 0.0
    vertex 39.99999999999993 44.99999999999994 0.0
  endloop
endfacet
facet normal 0.0 -1.0 0.0
  outer loop
    vertex 34.99999999999998 44.99999999999994 0.0
    vertex 39.99999999999993 44.99999999999994 2.0000000000000027
    vertex 34.99999999999998 44.99999999999994 2.0000000000000027
  endloop
endfacet
facet normal 1.0 -0.0 -0.0
  outer loop
    vertex 34.99999999999998 44.99999999999994 0.0
    vertex 34.99999999999998 40.99999999999995 2.0000000000000027
    vertex 34.99999999999998 40.99999999999995 0.0
  endloop
endfacet
facet normal 1.0 -0.0 -0.0
  outer loop
    vertex 34.99999999999998 40.99999999999995 2.0000000000000027
    vertex 34.99999999999998 44.99999999999994 0.0
    vertex 34.99999999999998 44.99999999999994 2.0000000000000027
  endloop
endfacet
facet normal -0.0 1.0 -0.0
  outer loop
    vertex 29.999999999999947 35.0 2.0000000000000027
    vertex 34.999999999999936 35.0 0.0
    vertex 29.999999999999947 35.0 0.0
  endloop
endfacet
facet normal -0.0 1.0 -0.0
  outer loop
    vertex 34.999999999999936 35.0 0.0
    vertex 29.999999999999947 35.0 2.0000000000000027
    vertex 34.999999999999936 35.0 2.0000000000000027
  endloop
endfacet
facet normal -1.0 1.1279865930191577e-14 0.0
  outer loop
    vertex 34.99999999999998 39.00000000000001 2.0000000000000027
    vertex 34.999999999999936 35.0 0.0
    vertex 34.999999999999936 35.0 2.0000000000000027
  endloop
endfacet
facet normal -1.0 1.1279865930191577e-14 0.0
  outer loop
    vertex 34.999999999999936 35.0 0.0
    vertex 34.99999999999998 39.00000000000001 2.0000000000000027
    vertex 34.99999999999998 39.00000000000001 0.0
  endloop
endfacet
facet normal 0.0 -1.0 0.0
  outer loop
    vertex 34.99999999999998 39.00000000000001 2.0000000000000027
    vertex 29.99999999999999 39.00000000000001 0.0
    vertex 34.99999999999998 39.00000000000001 0.0
  endloop
endfacet
facet normal 0.0 -1.0 0.0
  outer loop
    vertex 29.99999999999999 39.00000000000001 0.0
    vertex 34.99999999999998 39.00000000000001 2.0000000000000027
    vertex 29.99999999999999 39.00000000000001 2.0000000000000027
  endloop
endfacet
facet normal 1.0 -1.1279865930191577e-14 -0.0
  outer loop
    vertex 29.99999999999999 39.00000000000001 0.0
    vertex 29.999999999999947 35.0 2.0000000000000027
    vertex 29.999999999999947 35.0 0.0
  endloop
endfacet
facet normal 1.0 -1.1279865930191577e-14 -0.0
  outer loop
    vertex 29.999999999999947 35.0 2.0000000000000027
    vertex 29.99999999999999 39.00000000000001 0.0
    vertex 29.99999999999999 39.00000000000001 2.0000000000000027
  endloop
endfacet
facet normal -0.0 1.0 -0.0
  outer loop
    vertex 39.99999999999993 35.0 2.0000000000000027
    vertex 44.999999999999915 35.0 0.0
    vertex 39.99999999999993 35.0 0.0
  endloop
endfacet
facet normal -0.0 1.0 -0.0
  outer loop
    vertex 44.999999999999915 35.0 0.0
    vertex 39.99999999999993 35.0 2.0000000000000027
    vertex 44.999999999999915 35.0 2.0000000000000027
  endloop
endfacet
facet normal -1.0 1.1279865930191577e-14 0.0
  outer loop
    vertex 44.999999999999964 39.00000000000001 2.0000000000000027
    vertex 44.999999999999915 35.0 0.0
    vertex 44.999999999999915 35.0 2.0000000000000027
  endloop
endfacet
facet normal -1.0 1.1279865930191577e-14 0.0
  outer loop
    vertex 44.999999999999915 35.0 0.0
    vertex 44.999999999999964 39.00000000000001 2.0000000000000027
    vertex 44.999999999999964 39.00000000000001 0.0
  endloop
endfacet
facet normal 0.0 -1.0 0.0
  outer loop
    vertex 44.999999999999964 39.00000000000001 2.0000000000000027
    vertex 39.99999999999997 39.00000000000001 0.0
    vertex 44.999999999999964 39.00000000000001 0.0
  endloop
endfacet
facet normal 0.0 -1.0 0.0
  outer loop
    vertex 39.99999999999997 39.00000000000001 0.0
    vertex 44.999999999999964 39.00000000000001 2.0000000000000027
    vertex 39.99999999999997 39.00000000000001 2.0000000000000027
  endloop
endfacet
facet normal 1.0 -1.1279865930191577e-14 -0.0
  outer loop
    vertex 39.99999999999997 39.00000000000001 0.0
    vertex 39.99999999999993 35.0 2.0000000000000027
    vertex 39.99999999999993 35.0 0.0
  endloop
endfacet
facet normal 1.0 -1.1279865930191577e-14 -0.0
  outer loop
    vertex 39.99999999999993 35.0 2.0000000000000027
    vertex 39.99999999999997 39.00000000000001 0.0
    vertex 39.99999999999997 39.00000000000001 2.0000000000000027
  endloop
endfacet
facet normal -0.0 -0.0 1.0
  outer loop
    vertex 25.0 5.000000000000002 47.000000000000064
    vertex 4.999999999999991 25.0 47.000000000000064
    vertex 4.999999999999991 5.000000000000002 47.000000000000064
  endloop
endfacet
facet normal -0.0 -0.0 1.0
  outer loop
    vertex 4.999999999999991 25.0 47.000000000000064
    vertex 25.0 5.000000000000002 47.000000000000064
    vertex 25.0 25.0 47.000000000000064
  endloop
endfacet
facet normal -0.0 1.0 -0.0
  outer loop
    vertex 4.999999999999991 25.0 47.000000000000064
    vertex 25.0 25.0 2.0000000000000027
    vertex 4.999999999999991 25.0 2.0000000000000027
  endloop
endfacet
facet normal -0.0 1.0 -0.0
  outer loop
    vertex 25.0 25.0 2.0000000000000027
    vertex 4.999999999999991 25.0 47.000000000000064
    vertex 25.0 25.0 47.000000000000064
  endloop
endfacet
facet normal -1.0 0.0 0.0
  outer loop
    vertex 4.999999999999991 25.0 47.000000000000064
    vertex 4.999999999999991 5.000000000000002 2.0000000000000027
    vertex 4.999999999999991 5.000000000000002 47.000000000000064
  endloop
endfacet
facet normal -1.0 0.0 0.0
  outer loop
    vertex 4.999999999999991 5.000000000000002 2.0000000000000027
    vertex 4.999999999999991 25.0 47.000000000000064
    vertex 4.999999999999991 25.0 2.0000000000000027
  endloop
endfacet
facet normal 0.0 -1.0 0.0
  outer loop
    vertex 25.0 5.000000000000002 47.000000000000064
    vertex 4.999999999999991 5.000000000000002 2.0000000000000027
    vertex 25.0 5.000000000000002 2.0000000000000027
  endloop
endfacet
facet normal 0.0 -1.0 0.0
  outer loop
    vertex 4.999999999999991 5.000000000000002 2.0000000000000027
    vertex 25.0 5.000000000000002 47.000000000000064
    vertex 4.999999999999991 5.000000000000002 47.000000000000064
  endloop
endfacet
facet normal 1.0 -0.0 -0.0
  outer loop
    vertex 25.0 25.0 2.0000000000000027
    vertex 25.0 5.000000000000002 47.000000000000064
    vertex 25.0 5.000000000000002 2.0000000000000027
  endloop
endfacet
facet normal 1.0 -0.0 -0.0
  outer loop
    vertex 25.0 5.000000000000002 47.000000000000064
    vertex 25.0 25.0 2.0000000000000027
    vertex 25.0 25.0 47.000000000000064
  endloop
endfacet
facet normal -0.0 -0.0 1.0
  outer loop
    vertex 25.0 54.99999999999994 47.0
    vertex 4.999999999999991 74.99999999999996 47.0
    vertex 4.999999999999991 54.99999999999994 47.0
  endloop
endfacet
facet normal -0.0 -0.0 1.0
  outer loop
    vertex 4.999999999999991 74.99999999999996 47.0
    vertex 25.0 54.99999999999994 47.0
    vertex 25.0 74.99999999999996 47.0
  endloop
endfacet
facet normal 0.0 -1.0 0.0
  outer loop
    vertex 25.0 54.99999999999994 47.0
    vertex 4.999999999999991 54.99999999999994 2.0000000000000027
    vertex 25.0 54.99999999999994 2.0000000000000027
  endloop
endfacet
facet normal 0.0 -1.0 0.0
  outer loop
    vertex 4.999999999999991 54.99999999999994 2.0000000000000027
    vertex 25.0 54.99999999999994 47.0
    vertex 4.999999999999991 54.99999999999994 47.0
  endloop
endfacet
facet normal 1.0 -0.0 -0.0
  outer loop
    vertex 25.0 74.99999999999996 2.0000000000000027
    vertex 25.0 54.99999999999994 47.0
    vertex 25.0 54.99999999999994 2.0000000000000027
  endloop
endfacet
facet normal 1.0 -0.0 -0.0
  outer loop
    vertex 25.0 54.99999999999994 47.0
    vertex 25.0 74.99999999999996 2.0000000000000027
    vertex 25.0 74.99999999999996 47.0
  endloop
endfacet
facet normal -0.0 1.0 -0.0
  outer loop
    vertex 4.999999999999991 74.99999999999996 47.0
    vertex 25.0 74.99999999999996 2.0000000000000027
    vertex 4.999999999999991 74.99999999999996 2.0000000000000027
  endloop
endfacet
facet normal -0.0 1.0 -0.0
  outer loop
    vertex 25.0 74.99999999999996 2.0000000000000027
    vertex 4.999999999999991 74.99999999999996 47.0
    vertex 25.0 74.99999999999996 47.0
  endloop
endfacet
facet normal -1.0 0.0 0.0
  outer loop
    vertex 4.999999999999991 74.99999999999996 47.0
    vertex 4.999999999999991 54.99999999999994 2.0000000000000027
    vertex 4.999999999999991 54.99999999999994 47.0
  endloop
endfacet
facet normal -1.0 0.0 0.0
  outer loop
    vertex 4.999999999999991 54.99999999999994 2.0000000000000027
    vertex 4.999999999999991 74.99999999999996 47.0
    vertex 4.999999999999991 74.99999999999996 2.0000000000000027
  endloop
endfacet
facet normal -0.0 -0.0 1.0
  outer loop
    vertex 74.99999999999991 5.000000000000002 46.99999999999999
    vertex 54.9999999999999 25.0 46.99999999999999
    vertex 54.9999999999999 5.000000000000002 46.99999999999999
  endloop
endfacet
facet normal -0.0 -0.0 1.0
  outer loop
    vertex 54.9999999999999 25.0 46.99999999999999
    vertex 74.99999999999991 5.000000000000002 46.99999999999999
    vertex 74.99999999999991 25.0 46.99999999999999
  endloop
endfacet
facet normal -1.0 0.0 0.0
  outer loop
    vertex 54.9999999999999 25.0 46.99999999999999
    vertex 54.9999999999999 5.000000000000002 2.0000000000000027
    vertex 54.9999999999999 5.000000000000002 46.99999999999999
  endloop
endfacet
facet normal -1.0 0.0 0.0
  outer loop
    vertex 54.9999999999999 5.000000000000002 2.0000000000000027
    vertex 54.9999999999999 25.0 46.99999999999999
    vertex 54.9999999999999 25.0 2.0000000000000027
  endloop
endfacet
facet normal 0.0 -1.0 0.0
  outer loop
    vertex 74.99999999999991 5.000000000000002 46.99999999999999
    vertex 54.9999999999999 5.000000000000002 2.0000000000000027
    vertex 74.99999999999991 5.000000000000002 2.0000000000000027
  endloop
endfacet
facet normal 0.0 -1.0 0.0
  outer loop
    vertex 54.9999999999999 5.000000000000002 2.0000000000000027
    vertex 74.99999999999991 5.000000000000002 46.99999999999999
    vertex 54.9999999999999 5.000000000000002 46.99999999999999
  endloop
endfacet
facet normal 1.0 -0.0 -0.0
  outer loop
    vertex 74.99999999999991 25.0 2.0000000000000027
    vertex 74.99999999999991 5.000000000000002 46.99999999999999
    vertex 74.99999999999991 5.000000000000002 2.0000000000000027
  endloop
endfacet
facet normal 1.0 -0.0 -0.0
  outer loop
    vertex 74.99999999999991 5.000000000000002 46.99999999999999
    vertex 74.99999999999991 25.0 2.0000000000000027
    vertex 74.99999999999991 25.0 46.99999999999999
  endloop
endfacet
facet normal -0.0 1.0 -0.0
  outer loop
    vertex 54.9999999999999 25.0 46.99999999999999
    vertex 74.99999999999991 25.0 2.0000000000000027
    vertex 54.9999999999999 25.0 2.0000000000000027
  endloop
endfacet
facet normal -0.0 1.0 -0.0
  outer loop
    vertex 74.99999999999991 25.0 2.0000000000000027
    vertex 54.9999999999999 25.0 46.99999999999999
    vertex 74.99999999999991 25.0 46.99999999999999
  endloop
endfacet
facet normal -0.0 -0.0 1.0
  outer loop
    vertex 74.99999999999991 54.99999999999994 47.0
    vertex 54.9999999999999 74.99999999999996 47.0
    vertex 54.9999999999999 54.99999999999994 47.0
  endloop
endfacet
facet normal -0.0 -0.0 1.0
  outer loop
    vertex 54.9999999999999 74.99999999999996 47.0
    vertex 74.99999999999991 54.99999999999994 47.0
    vertex 74.99999999999991 74.99999999999996 47.0
  endloop
endfacet
facet normal -1.0 0.0 0.0
  outer loop
    vertex 54.9999999999999 74.99999999999996 47.0
    vertex 54.9999999999999 54.99999999999994 2.0000000000000027
    vertex 54.9999999999999 54.99999999999994 47.0
  endloop
endfacet
facet normal -1.0 0.0 0.0
  outer loop
    vertex 54.9999999999999 54.99999999999994 2.0000000000000027
    vertex 54.9999999999999 74.99999999999996 47.0
    vertex 54.9999999999999 74.99999999999996 2.0000000000000027
  endloop
endfacet
facet normal 0.0 -1.0 0.0
  outer loop
    vertex 74.99999999999991 54.99999999999994 47.0
    vertex 54.9999999999999 54.99999999999994 2.0000000000000027
    vertex 74.99999999999991 54.99999999999994 2.0000000000000027
  endloop
endfacet
facet normal 0.0 -1.0 0.0
  outer loop
    vertex 54.9999999999999 54.99999999999994 2.0000000000000027
    vertex 74.99999999999991 54.99999999999994 47.0
    vertex 54.9999999999999 54.99999999999994 47.0
  endloop
endfacet
facet normal 1.0 -0.0 -0.0
  outer loop
    vertex 74.99999999999991 74.99999999999996 2.0000000000000027
    vertex 74.99999999999991 54.99999999999994 47.0
    vertex 74.99999999999991 54.99999999999994 2.0000000000000027
  endloop
endfacet
facet normal 1.0 -0.0 -0.0
  outer loop
    vertex 74.99999999999991 54.99999999999994 47.0
    vertex 74.99999999999991 74.99999999999996 2.0000000000000027
    vertex 74.99999999999991 74.99999999999996 47.0
  endloop
endfacet
facet normal -0.0 1.0 -0.0
  outer loop
    vertex 54.9999999999999 74.99999999999996 47.0
    vertex 74.99999999999991 74.99999999999996 2.0000000000000027
    vertex 54.9999999999999 74.99999999999996 2.0000000000000027
  endloop
endfacet
facet normal -0.0 1.0 -0.0
  outer loop
    vertex 74.99999999999991 74.99999999999996 2.0000000000000027
    vertex 54.9999999999999 74.99999999999996 47.0
    vertex 74.99999999999991 74.99999999999996 47.0
  endloop
endfacet
facet normal -0.0 -0.0 1.0
  outer loop
    vertex 1.4999999999999973 1.4999999999999973 2.0000000000000027
    vertex 4.999999999999991 5.000000000000002 2.0000000000000027
    vertex 1.4999999999999973 78.49999999999994 2.0000000000000027
  endloop
endfacet
facet normal -0.0 -0.0 1.0
  outer loop
    vertex 4.999999999999991 5.000000000000002 2.0000000000000027
    vertex 1.4999999999999973 1.4999999999999973 2.0000000000000027
    vertex 78.4999999999999 1.4999999999999973 2.0000000000000027
  endloop
endfacet
facet normal -0.0 -0.0 1.0
  outer loop
    vertex 4.999999999999991 5.000000000000002 2.0000000000000027
    vertex 78.4999999999999 1.4999999999999973 2.0000000000000027
    vertex 25.0 5.000000000000002 2.0000000000000027
  endloop
endfacet
facet normal -0.0 -0.0 1.0
  outer loop
    vertex 25.0 5.000000000000002 2.0000000000000027
    vertex 78.4999999999999 1.4999999999999973 2.0000000000000027
    vertex 54.9999999999999 5.000000000000002 2.0000000000000027
  endloop
endfacet
facet normal -0.0 -0.0 1.0
  outer loop
    vertex 25.0 5.000000000000002 2.0000000000000027
    vertex 54.9999999999999 5.000000000000002 2.0000000000000027
    vertex 25.0 25.0 2.0000000000000027
  endloop
endfacet
facet normal -0.0 -0.0 1.0
  outer loop
    vertex 25.0 25.0 2.0000000000000027
    vertex 54.9999999999999 5.000000000000002 2.0000000000000027
    vertex 25.0 40.99999999999995 2.0000000000000027
  endloop
endfacet
facet normal -0.0 -0.0 1.0
  outer loop
    vertex 25.0 40.99999999999995 2.0000000000000027
    vertex 54.9999999999999 5.000000000000002 2.0000000000000027
    vertex 29.999999999999947 35.0 2.0000000000000027
  endloop
endfacet
facet normal -0.0 -0.0 1.0
  outer loop
    vertex 29.999999999999947 35.0 2.0000000000000027
    vertex 54.9999999999999 5.000000000000002 2.0000000000000027
    vertex 34.999999999999936 35.0 2.0000000000000027
  endloop
endfacet
facet normal -0.0 -0.0 1.0
  outer loop
    vertex 34.999999999999936 35.0 2.0000000000000027
    vertex 54.9999999999999 5.000000000000002 2.0000000000000027
    vertex 34.99999999999998 39.00000000000001 2.0000000000000027
  endloop
endfacet
facet normal -0.0 -0.0 1.0
  outer loop
    vertex 34.99999999999998 39.00000000000001 2.0000000000000027
    vertex 54.9999999999999 5.000000000000002 2.0000000000000027
    vertex 34.99999999999998 40.99999999999995 2.0000000000000027
  endloop
endfacet
facet normal -0.0 -0.0 1.0
  outer loop
    vertex 34.99999999999998 40.99999999999995 2.0000000000000027
    vertex 54.9999999999999 5.000000000000002 2.0000000000000027
    vertex 39.99999999999993 35.0 2.0000000000000027
  endloop
endfacet
facet normal -0.0 -0.0 1.0
  outer loop
    vertex 39.99999999999993 35.0 2.0000000000000027
    vertex 54.9999999999999 5.000000000000002 2.0000000000000027
    vertex 44.999999999999915 35.0 2.0000000000000027
  endloop
endfacet
facet normal -0.0 -0.0 1.0
  outer loop
    vertex 44.999999999999915 35.0 2.0000000000000027
    vertex 54.9999999999999 5.000000000000002 2.0000000000000027
    vertex 44.999999999999964 39.00000000000001 2.0000000000000027
  endloop
endfacet
facet normal -0.0 -0.0 1.0
  outer loop
    vertex 44.999999999999964 39.00000000000001 2.0000000000000027
    vertex 54.9999999999999 5.000000000000002 2.0000000000000027
    vertex 49.99999999999991 35.0 2.0000000000000027
  endloop
endfacet
facet normal -0.0 -0.0 1.0
  outer loop
    vertex 54.9999999999999 5.000000000000002 2.0000000000000027
    vertex 78.4999999999999 1.4999999999999973 2.0000000000000027
    vertex 74.99999999999991 5.000000000000002 2.0000000000000027
  endloop
endfacet
facet normal -0.0 -0.0 1.0
  outer loop
    vertex 74.99999999999991 5.000000000000002 2.0000000000000027
    vertex 78.4999999999999 1.4999999999999973 2.0000000000000027
    vertex 74.99999999999991 25.0 2.0000000000000027
  endloop
endfacet
facet normal -0.0 -0.0 1.0
  outer loop
    vertex 74.99999999999991 25.0 2.0000000000000027
    vertex 78.4999999999999 1.4999999999999973 2.0000000000000027
    vertex 74.99999999999991 54.99999999999994 2.0000000000000027
  endloop
endfacet
facet normal -0.0 -0.0 1.0
  outer loop
    vertex 74.99999999999991 54.99999999999994 2.0000000000000027
    vertex 78.4999999999999 1.4999999999999973 2.0000000000000027
    vertex 74.99999999999991 74.99999999999996 2.0000000000000027
  endloop
endfacet
facet normal -0.0 -0.0 1.0
  outer loop
    vertex 1.4999999999999973 78.49999999999994 2.0000000000000027
    vertex 4.999999999999991 74.99999999999996 2.0000000000000027
    vertex 78.4999999999999 78.49999999999994 2.0000000000000027
  endloop
endfacet
facet normal -0.0 -0.0 1.0
  outer loop
    vertex 4.999999999999991 74.99999999999996 2.0000000000000027
    vertex 1.4999999999999973 78.49999999999994 2.0000000000000027
    vertex 4.999999999999991 5.000000000000002 2.0000000000000027
  endloop
endfacet
facet normal -0.0 -0.0 1.0
  outer loop
    vertex 4.999999999999991 74.99999999999996 2.0000000000000027
    vertex 4.999999999999991 5.000000000000002 2.0000000000000027
    vertex 4.999999999999991 25.0 2.0000000000000027
  endloop
endfacet
facet normal -0.0 -0.0 1.0
  outer loop
    vertex 4.999999999999991 74.99999999999996 2.0000000000000027
    vertex 4.999999999999991 25.0 2.0000000000000027
    vertex 4.999999999999991 54.99999999999994 2.0000000000000027
  endloop
endfacet
facet normal -0.0 -0.0 1.0
  outer loop
    vertex 78.4999999999999 78.49999999999994 2.0000000000000027
    vertex 4.999999999999991 74.99999999999996 2.0000000000000027
    vertex 25.0 74.99999999999996 2.0000000000000027
  endloop
endfacet
facet normal -0.0 -0.0 1.0
  outer loop
    vertex 78.4999999999999 78.49999999999994 2.0000000000000027
    vertex 25.0 74.99999999999996 2.0000000000000027
    vertex 54.9999999999999 74.99999999999996 2.0000000000000027
  endloop
endfacet
facet normal -0.0 -0.0 1.0
  outer loop
    vertex 54.9999999999999 74.99999999999996 2.0000000000000027
    vertex 25.0 74.99999999999996 2.0000000000000027
    vertex 29.99999999999999 44.99999999999994 2.0000000000000027
  endloop
endfacet
facet normal -0.0 -0.0 1.0
  outer loop
    vertex 54.9999999999999 74.99999999999996 2.0000000000000027
    vertex 29.99999999999999 44.99999999999994 2.0000000000000027
    vertex 34.99999999999998 44.99999999999994 2.0000000000000027
  endloop
endfacet
facet normal -0.0 -0.0 1.0
  outer loop
    vertex 34.99999999999998 44.99999999999994 2.0000000000000027
    vertex 29.99999999999999 44.99999999999994 2.0000000000000027
    vertex 34.99999999999998 39.00000000000001 2.0000000000000027
  endloop
endfacet
facet normal -0.0 -0.0 1.0
  outer loop
    vertex 34.99999999999998 44.99999999999994 2.0000000000000027
    vertex 34.99999999999998 39.00000000000001 2.0000000000000027
    vertex 34.99999999999998 40.99999999999995 2.0000000000000027
  endloop
endfacet
facet normal -0.0 -0.0 1.0
  outer loop
    vertex 54.9999999999999 74.99999999999996 2.0000000000000027
    vertex 34.99999999999998 44.99999999999994 2.0000000000000027
    vertex 39.99999999999993 44.99999999999994 2.0000000000000027
  endloop
endfacet
facet normal -0.0 -0.0 1.0
  outer loop
    vertex 54.9999999999999 74.99999999999996 2.0000000000000027
    vertex 39.99999999999993 44.99999999999994 2.0000000000000027
    vertex 39.99999999999997 39.00000000000001 2.0000000000000027
  endloop
endfacet
facet normal -0.0 -0.0 1.0
  outer loop
    vertex 54.9999999999999 74.99999999999996 2.0000000000000027
    vertex 39.99999999999997 39.00000000000001 2.0000000000000027
    vertex 44.999999999999915 44.99999999999994 2.0000000000000027
  endloop
endfacet
facet normal -0.0 -0.0 1.0
  outer loop
    vertex 44.999999999999915 44.99999999999994 2.0000000000000027
    vertex 39.99999999999997 39.00000000000001 2.0000000000000027
    vertex 44.999999999999915 40.99999999999995 2.0000000000000027
  endloop
endfacet
facet normal -0.0 -0.0 1.0
  outer loop
    vertex 54.9999999999999 74.99999999999996 2.0000000000000027
    vertex 44.999999999999915 44.99999999999994 2.0000000000000027
    vertex 49.99999999999991 44.99999999999994 2.0000000000000027
  endloop
endfacet
facet normal -0.0 -0.0 1.0
  outer loop
    vertex 54.9999999999999 74.99999999999996 2.0000000000000027
    vertex 49.99999999999991 44.99999999999994 2.0000000000000027
    vertex 49.99999999999993 39.00000000000001 2.0000000000000027
  endloop
endfacet
facet normal -0.0 -0.0 1.0
  outer loop
    vertex 54.9999999999999 74.99999999999996 2.0000000000000027
    vertex 49.99999999999993 39.00000000000001 2.0000000000000027
    vertex 54.9999999999999 39.00000000000001 2.0000000000000027
  endloop
endfacet
facet normal -0.0 -0.0 1.0
  outer loop
    vertex 54.9999999999999 74.99999999999996 2.0000000000000027
    vertex 54.9999999999999 39.00000000000001 2.0000000000000027
    vertex 54.9999999999999 54.99999999999994 2.0000000000000027
  endloop
endfacet
facet normal -0.0 -0.0 1.0
  outer loop
    vertex 78.4999999999999 78.49999999999994 2.0000000000000027
    vertex 54.9999999999999 74.99999999999996 2.0000000000000027
    vertex 74.99999999999991 74.99999999999996 2.0000000000000027
  endloop
endfacet
facet normal -0.0 -0.0 1.0
  outer loop
    vertex 78.4999999999999 78.49999999999994 2.0000000000000027
    vertex 74.99999999999991 74.99999999999996 2.0000000000000027
    vertex 78.4999999999999 1.4999999999999973 2.0000000000000027
  endloop
endfacet
facet normal -0.0 -0.0 1.0
  outer loop
    vertex 54.9999999999999 5.000000000000002 2.0000000000000027
    vertex 54.9999999999999 35.0 2.0000000000000027
    vertex 49.99999999999991 35.0 2.0000000000000027
  endloop
endfacet
facet normal -0.0 -0.0 1.0
  outer loop
    vertex 54.9999999999999 35.0 2.0000000000000027
    vertex 54.9999999999999 5.000000000000002 2.0000000000000027
    vertex 54.9999999999999 25.0 2.0000000000000027
  endloop
endfacet
facet normal -0.0 -0.0 1.0
  outer loop
    vertex 54.9999999999999 35.0 2.0000000000000027
    vertex 54.9999999999999 25.0 2.0000000000000027
    vertex 74.99999999999991 25.0 2.0000000000000027
  endloop
endfacet
facet normal -0.0 -0.0 1.0
  outer loop
    vertex 54.9999999999999 35.0 2.0000000000000027
    vertex 74.99999999999991 25.0 2.0000000000000027
    vertex 54.9999999999999 39.00000000000001 2.0000000000000027
  endloop
endfacet
facet normal -0.0 -0.0 1.0
  outer loop
    vertex 54.9999999999999 39.00000000000001 2.0000000000000027
    vertex 74.99999999999991 25.0 2.0000000000000027
    vertex 54.9999999999999 54.99999999999994 2.0000000000000027
  endloop
endfacet
facet normal -0.0 -0.0 1.0
  outer loop
    vertex 54.9999999999999 54.99999999999994 2.0000000000000027
    vertex 74.99999999999991 25.0 2.0000000000000027
    vertex 74.99999999999991 54.99999999999994 2.0000000000000027
  endloop
endfacet
facet normal -0.0 -0.0 1.0
  outer loop
    vertex 39.99999999999993 35.0 2.0000000000000027
    vertex 39.99999999999993 40.99999999999995 2.0000000000000027
    vertex 34.99999999999998 40.99999999999995 2.0000000000000027
  endloop
endfacet
facet normal -0.0 -0.0 1.0
  outer loop
    vertex 39.99999999999993 40.99999999999995 2.0000000000000027
    vertex 39.99999999999993 35.0 2.0000000000000027
    vertex 39.99999999999997 39.00000000000001 2.0000000000000027
  endloop
endfacet
facet normal -0.0 -0.0 1.0
  outer loop
    vertex 39.99999999999993 40.99999999999995 2.0000000000000027
    vertex 39.99999999999997 39.00000000000001 2.0000000000000027
    vertex 39.99999999999993 44.99999999999994 2.0000000000000027
  endloop
endfacet
facet normal -0.0 -0.0 1.0
  outer loop
    vertex 44.999999999999964 39.00000000000001 2.0000000000000027
    vertex 44.999999999999915 40.99999999999995 2.0000000000000027
    vertex 39.99999999999997 39.00000000000001 2.0000000000000027
  endloop
endfacet
facet normal -0.0 -0.0 1.0
  outer loop
    vertex 44.999999999999915 40.99999999999995 2.0000000000000027
    vertex 44.999999999999964 39.00000000000001 2.0000000000000027
    vertex 49.99999999999991 40.99999999999995 2.0000000000000027
  endloop
endfacet
facet normal -0.0 -0.0 1.0
  outer loop
    vertex 49.99999999999991 40.99999999999995 2.0000000000000027
    vertex 44.999999999999964 39.00000000000001 2.0000000000000027
    vertex 49.99999999999991 35.0 2.0000000000000027
  endloop
endfacet
facet normal -0.0 -0.0 1.0
  outer loop
    vertex 49.99999999999991 40.99999999999995 2.0000000000000027
    vertex 49.99999999999991 35.0 2.0000000000000027
    vertex 49.99999999999993 39.00000000000001 2.0000000000000027
  endloop
endfacet
facet normal -0.0 -0.0 1.0
  outer loop
    vertex 49.99999999999991 40.99999999999995 2.0000000000000027
    vertex 49.99999999999993 39.00000000000001 2.0000000000000027
    vertex 49.99999999999991 44.99999999999994 2.0000000000000027
  endloop
endfacet
facet normal -0.0 -0.0 1.0
  outer loop
    vertex 29.999999999999947 35.0 2.0000000000000027
    vertex 29.99999999999999 40.99999999999995 2.0000000000000027
    vertex 25.0 40.99999999999995 2.0000000000000027
  endloop
endfacet
facet normal -0.0 -0.0 1.0
  outer loop
    vertex 29.99999999999999 40.99999999999995 2.0000000000000027
    vertex 29.999999999999947 35.0 2.0000000000000027
    vertex 29.99999999999999 39.00000000000001 2.0000000000000027
  endloop
endfacet
facet normal -0.0 -0.0 1.0
  outer loop
    vertex 29.99999999999999 40.99999999999995 2.0000000000000027
    vertex 29.99999999999999 39.00000000000001 2.0000000000000027
    vertex 34.99999999999998 39.00000000000001 2.0000000000000027
  endloop
endfacet
facet normal -0.0 -0.0 1.0
  outer loop
    vertex 29.99999999999999 40.99999999999995 2.0000000000000027
    vertex 34.99999999999998 39.00000000000001 2.0000000000000027
    vertex 29.99999999999999 44.99999999999994 2.0000000000000027
  endloop
endfacet
facet normal -0.0 -0.0 1.0
  outer loop
    vertex 25.0 25.0 2.0000000000000027
    vertex 4.999999999999991 54.99999999999994 2.0000000000000027
    vertex 4.999999999999991 25.0 2.0000000000000027
  endloop
endfacet
facet normal -0.0 -0.0 1.0
  outer loop
    vertex 4.999999999999991 54.99999999999994 2.0000000000000027
    vertex 25.0 25.0 2.0000000000000027
    vertex 25.0 54.99999999999994 2.0000000000000027
  endloop
endfacet
facet normal -0.0 -0.0 1.0
  outer loop
    vertex 25.0 54.99999999999994 2.0000000000000027
    vertex 25.0 25.0 2.0000000000000027
    vertex 25.0 40.99999999999995 2.0000000000000027
  endloop
endfacet
facet normal -0.0 -0.0 1.0
  outer loop
    vertex 25.0 54.99999999999994 2.0000000000000027
    vertex 25.0 40.99999999999995 2.0000000000000027
    vertex 25.0 44.99999999999994 2.0000000000000027
  endloop
endfacet
facet normal -0.0 -0.0 1.0
  outer loop
    vertex 25.0 54.99999999999994 2.0000000000000027
    vertex 25.0 44.99999999999994 2.0000000000000027
    vertex 29.99999999999999 44.99999999999994 2.0000000000000027
  endloop
endfacet
facet normal -0.0 -0.0 1.0
  outer loop
    vertex 25.0 54.99999999999994 2.0000000000000027
    vertex 29.99999999999999 44.99999999999994 2.0000000000000027
    vertex 25.0 74.99999999999996 2.0000000000000027
  endloop
endfacet
facet normal -0.0 -0.0 1.0
  outer loop
    vertex 79.9999999999999 0.0 49.000000000000036
    vertex 0.0 79.99999999999994 49.000000000000036
    vertex 0.0 0.0 49.000000000000036
  endloop
endfacet
facet normal -0.0 -0.0 1.0
  outer loop
    vertex 0.0 79.99999999999994 49.000000000000036
    vertex 79.9999999999999 0.0 49.000000000000036
    vertex 79.9999999999999 79.99999999999994 49.000000000000036
  endloop
endfacet
facet normal 0.0 -1.0 0.0
  outer loop
    vertex 78.4999999999999 78.49999999999994 47.00000000000003
    vertex 1.4999999999999973 78.49999999999994 2.0000000000000027
    vertex 78.4999999999999 78.49999999999994 2.0000000000000027
  endloop
endfacet
facet normal 0.0 -1.0 0.0
  outer loop
    vertex 1.4999999999999973 78.49999999999994 2.0000000000000027
    vertex 78.4999999999999 78.49999999999994 47.00000000000003
    vertex 1.4999999999999973 78.49999999999994 47.00000000000003
  endloop
endfacet
facet normal -1.0 0.0 0.0
  outer loop
    vertex 78.4999999999999 78.49999999999994 47.00000000000003
    vertex 78.4999999999999 1.4999999999999973 2.0000000000000027
    vertex 78.4999999999999 1.4999999999999973 47.00000000000003
  endloop
endfacet
facet normal -1.0 0.0 0.0
  outer loop
    vertex 78.4999999999999 1.4999999999999973 2.0000000000000027
    vertex 78.4999999999999 78.49999999999994 47.00000000000003
    vertex 78.4999999999999 78.49999999999994 2.0000000000000027
  endloop
endfacet
facet normal -0.0 1.0 -0.0
  outer loop
    vertex 1.4999999999999973 1.4999999999999973 47.00000000000003
    vertex 78.4999999999999 1.4999999999999973 2.0000000000000027
    vertex 1.4999999999999973 1.4999999999999973 2.0000000000000027
  endloop
endfacet
facet normal -0.0 1.0 -0.0
  outer loop
    vertex 78.4999999999999 1.4999999999999973 2.0000000000000027
    vertex 1.4999999999999973 1.4999999999999973 47.00000000000003
    vertex 78.4999999999999 1.4999999999999973 47.00000000000003
  endloop
endfacet
facet normal 1.0 -0.0 -0.0
  outer loop
    vertex 1.4999999999999973 78.49999999999994 2.0000000000000027
    vertex 1.4999999999999973 1.4999999999999973 47.00000000000003
    vertex 1.4999999999999973 1.4999999999999973 2.0000000000000027
  endloop
endfacet
facet normal 1.0 -0.0 -0.0
  outer loop
    vertex 1.4999999999999973 1.4999999999999973 47.00000000000003
    vertex 1.4999999999999973 78.49999999999994 2.0000000000000027
    vertex 1.4999999999999973 78.49999999999994 47.00000000000003
  endloop
endfacet
facet normal -0.0 -0.0 1.0
  outer loop
    vertex 1.4999999999999973 1.4999999999999973 47.00000000000003
    vertex 4.999999999999991 5.000000000000002 47.000000000000064
    vertex 1.4999999999999973 78.49999999999994 47.00000000000003
  endloop
endfacet
facet normal -0.0 -0.0 1.0
  outer loop
    vertex 4.999999999999991 5.000000000000002 47.000000000000064
    vertex 1.4999999999999973 1.4999999999999973 47.00000000000003
    vertex 78.4999999999999 1.4999999999999973 47.00000000000003
  endloop
endfacet
facet normal -0.0 -0.0 1.0
  outer loop
    vertex 4.999999999999991 5.000000000000002 47.000000000000064
    vertex 78.4999999999999 1.4999999999999973 47.00000000000003
    vertex 25.0 5.000000000000002 47.000000000000064
  endloop
endfacet
facet normal -0.0 -0.0 1.0
  outer loop
    vertex 25.0 5.000000000000002 47.000000000000064
    vertex 78.4999999999999 1.4999999999999973 47.00000000000003
    vertex 54.9999999999999 5.000000000000002 46.99999999999999
  endloop
endfacet
facet normal -0.0 -0.0 1.0
  outer loop
    vertex 25.0 5.000000000000002 47.000000000000064
    vertex 54.9999999999999 5.000000000000002 46.99999999999999
    vertex 25.0 25.0 47.000000000000064
  endloop
endfacet
facet normal -0.0 -0.0 1.0
  outer loop
    vertex 25.0 25.0 47.000000000000064
    vertex 54.9999999999999 5.000000000000002 46.99999999999999
    vertex 25.0 54.99999999999994 47.0
  endloop
endfacet
facet normal -0.0 -0.0 1.0
  outer loop
    vertex 25.0 54.99999999999994 47.0
    vertex 54.9999999999999 5.000000000000002 46.99999999999999
    vertex 25.0 74.99999999999996 47.0
  endloop
endfacet
facet normal -0.0 -0.0 1.0
  outer loop
    vertex 54.9999999999999 5.000000000000002 46.99999999999999
    vertex 78.4999999999999 1.4999999999999973 47.00000000000003
    vertex 74.99999999999991 5.000000000000002 46.99999999999999
  endloop
endfacet
facet normal -0.0 -0.0 1.0
  outer loop
    vertex 74.99999999999991 5.000000000000002 46.99999999999999
    vertex 78.4999999999999 1.4999999999999973 47.00000000000003
    vertex 74.99999999999991 25.0 46.99999999999999
  endloop
endfacet
facet normal -0.0 -0.0 1.0
  outer loop
    vertex 74.99999999999991 25.0 46.99999999999999
    vertex 78.4999999999999 1.4999999999999973 47.00000000000003
    vertex 74.99999999999991 54.99999999999994 47.0
  endloop
endfacet
facet normal -0.0 -0.0 1.0
  outer loop
    vertex 74.99999999999991 54.99999999999994 47.0
    vertex 78.4999999999999 1.4999999999999973 47.00000000000003
    vertex 74.99999999999991 74.99999999999996 47.0
  endloop
endfacet
facet normal -0.0 -0.0 1.0
  outer loop
    vertex 1.4999999999999973 78.49999999999994 47.00000000000003
    vertex 4.999999999999991 74.99999999999996 47.0
    vertex 78.4999999999999 78.49999999999994 47.00000000000003
  endloop
endfacet
facet normal -0.0 -0.0 1.0
  outer loop
    vertex 4.999999999999991 74.99999999999996 47.0
    vertex 1.4999999999999973 78.49999999999994 47.00000000000003
    vertex 4.999999999999991 5.000000000000002 47.000000000000064
  endloop
endfacet
facet normal -0.0 -0.0 1.0
  outer loop
    vertex 4.999999999999991 74.99999999999996 47.0
    vertex 4.999999999999991 5.000000000000002 47.000000000000064
    vertex 4.999999999999991 25.0 47.000000000000064
  endloop
endfacet
facet normal -0.0 -0.0 1.0
  outer loop
    vertex 4.999999999999991 74.99999999999996 47.0
    vertex 4.999999999999991 25.0 47.000000000000064
    vertex 4.999999999999991 54.99999999999994 47.0
  endloop
endfacet
facet normal -0.0 -0.0 1.0
  outer loop
    vertex 78.4999999999999 78.49999999999994 47.00000000000003
    vertex 4.999999999999991 74.99999999999996 47.0
    vertex 25.0 74.99999999999996 47.0
  endloop
endfacet
facet normal -0.0 -0.0 1.0
  outer loop
    vertex 78.4999999999999 78.49999999999994 47.00000000000003
    vertex 25.0 74.99999999999996 47.0
    vertex 54.9999999999999 74.99999999999996 47.0
  endloop
endfacet
facet normal -0.0 -0.0 1.0
  outer loop
    vertex 54.9999999999999 74.99999999999996 47.0
    vertex 25.0 74.99999999999996 47.0
    vertex 54.9999999999999 5.000000000000002 46.99999999999999
  endloop
endfacet
facet normal -0.0 -0.0 1.0
  outer loop
    vertex 54.9999999999999 74.99999999999996 47.0
    vertex 54.9999999999999 5.000000000000002 46.99999999999999
    vertex 54.9999999999999 25.0 46.99999999999999
  endloop
endfacet
facet normal -0.0 -0.0 1.0
  outer loop
    vertex 54.9999999999999 74.99999999999996 47.0
    vertex 54.9999999999999 25.0 46.99999999999999
    vertex 54.9999999999999 54.99999999999994 47.0
  endloop
endfacet
facet normal -0.0 -0.0 1.0
  outer loop
    vertex 78.4999999999999 78.49999999999994 47.00000000000003
    vertex 54.9999999999999 74.99999999999996 47.0
    vertex 74.99999999999991 74.99999999999996 47.0
  endloop
endfacet
facet normal -0.0 -0.0 1.0
  outer loop
    vertex 78.4999999999999 78.49999999999994 47.00000000000003
    vertex 74.99999999999991 74.99999999999996 47.0
    vertex 78.4999999999999 1.4999999999999973 47.00000000000003
  endloop
endfacet
facet normal -0.0 -0.0 1.0
  outer loop
    vertex 74.99999999999991 25.0 46.99999999999999
    vertex 54.9999999999999 54.99999999999994 47.0
    vertex 54.9999999999999 25.0 46.99999999999999
  endloop
endfacet
facet normal -0.0 -0.0 1.0
  outer loop
    vertex 54.9999999999999 54.99999999999994 47.0
    vertex 74.99999999999991 25.0 46.99999999999999
    vertex 74.99999999999991 54.99999999999994 47.0
  endloop
endfacet
facet normal -0.0 -0.0 1.0
  outer loop
    vertex 25.0 25.0 47.000000000000064
    vertex 4.999999999999991 54.99999999999994 47.0
    vertex 4.999999999999991 25.0 47.000000000000064
  endloop
endfacet
facet normal -0.0 -0.0 1.0
  outer loop
    vertex 4.999999999999991 54.99999999999994 47.0
    vertex 25.0 25.0 47.000000000000064
    vertex 25.0 54.99999999999994 47.0
  endloop
endfacet
endsolid strong_qube_4_draft3
